<?xml version="1.0" encoding="UTF-8" standalone="no"?>
<svg
   xmlns:dc="http://purl.org/dc/elements/1.1/"
   xmlns:cc="http://creativecommons.org/ns#"
   xmlns:rdf="http://www.w3.org/1999/02/22-rdf-syntax-ns#"
   xmlns:svg="http://www.w3.org/2000/svg"
   xmlns="http://www.w3.org/2000/svg"
   xmlns:sodipodi="http://sodipodi.sourceforge.net/DTD/sodipodi-0.dtd"
   xmlns:inkscape="http://www.inkscape.org/namespaces/inkscape"
   version="1.1"
   x="0px"
   y="0px"
   viewBox="0 0 100 125"
   style="enable-background:new 0 0 100 100;"
   xml:space="preserve"
   id="svg56"
   sodipodi:docname="pizzabox_colored.svg"
   inkscape:version="1.0.2-2 (e86c870879, 2021-01-15)"><metadata
   id="metadata62"><rdf:RDF><cc:Work
       rdf:about=""><dc:format>image/svg+xml</dc:format><dc:type
         rdf:resource="http://purl.org/dc/dcmitype/StillImage" /><dc:title></dc:title></cc:Work></rdf:RDF></metadata><defs
   id="defs60" /><sodipodi:namedview
   pagecolor="#ffffff"
   bordercolor="#666666"
   borderopacity="1"
   objecttolerance="10"
   gridtolerance="10"
   guidetolerance="10"
   inkscape:pageopacity="0"
   inkscape:pageshadow="2"
   inkscape:window-width="1920"
   inkscape:window-height="1001"
   id="namedview58"
   showgrid="false"
   inkscape:zoom="6.64"
   inkscape:cx="29.003439"
   inkscape:cy="65.132803"
   inkscape:window-x="-9"
   inkscape:window-y="1341"
   inkscape:window-maximized="1"
   inkscape:current-layer="svg56" />
  <path
   d="m 94.931,56.572 c 0,-0.001 0,-0.002 0,-0.002 0,0 -10e-4,-10e-4 -10e-4,-10e-4 L 80.244,19.16 C 80.236,19.14 80.223,19.123 80.214,19.104 80.21,19.095 80.211,19.084 80.207,19.075 80.201,19.063 80.189,19.057 80.182,19.045 80.159,19.003 80.137,18.961 80.108,18.923 80.09,18.899 80.069,18.88 80.049,18.858 80.014,18.819 79.979,18.78 79.938,18.748 79.929,18.741 79.92,18.735 79.91,18.727 79.886,18.709 79.86,18.694 79.834,18.679 79.785,18.649 79.735,18.624 79.682,18.603 79.65,18.59 79.618,18.578 79.584,18.568 79.566,18.563 79.549,18.553 79.53,18.549 L 25.798,6.631 C 25.773,6.625 25.748,6.629 25.722,6.625 25.689,6.62 25.657,6.609 25.623,6.608 25.602,6.607 25.583,6.613 25.562,6.613 25.543,6.613 25.523,6.61 25.504,6.611 25.482,6.613 25.461,6.62 25.439,6.623 25.383,6.631 25.329,6.643 25.276,6.66 25.258,6.666 25.24,6.67 25.222,6.677 25.207,6.683 25.192,6.689 25.177,6.696 25.126,6.72 25.077,6.748 25.03,6.78 25.009,6.794 24.989,6.807 24.969,6.823 24.958,6.832 24.945,6.839 24.934,6.848 24.898,6.879 24.867,6.916 24.836,6.952 24.821,6.97 24.802,6.982 24.788,7 24.78,7.01 24.777,7.023 24.769,7.034 24.76,7.047 24.748,7.057 24.739,7.07 l -0.223,0.349 -3.652,5.723 c -0.004,0.006 -0.004,0.014 -0.007,0.02 -0.062,0.101 -0.099,0.211 -0.122,0.324 -0.003,0.015 -0.014,0.027 -0.016,0.042 l -0.001,0.006 c -0.002,0.014 0.003,0.028 0.002,0.042 -0.012,0.11 -0.013,0.222 0.012,0.331 0,0.002 0,0.004 0.001,0.006 0.02,0.086 0.051,0.169 0.094,0.249 L 37.085,44.249 5.424,66.556 c -0.013,0.01 -0.022,0.023 -0.035,0.033 -0.015,0.011 -0.032,0.018 -0.046,0.031 -0.027,0.023 -0.045,0.053 -0.069,0.078 -0.028,0.03 -0.056,0.058 -0.08,0.091 -0.032,0.044 -0.056,0.091 -0.08,0.139 -0.017,0.033 -0.036,0.065 -0.049,0.1 -0.021,0.056 -0.031,0.114 -0.042,0.173 -0.005,0.031 -0.016,0.06 -0.018,0.092 -0.008,0.092 -0.004,0.185 0.015,0.278 l 1.428,7.097 c 0.009,0.044 0.028,0.083 0.042,0.125 0.011,0.032 0.018,0.066 0.032,0.096 0.003,0.006 0.004,0.013 0.007,0.019 0.014,0.03 0.036,0.054 0.053,0.082 0.011,0.018 0.022,0.035 0.034,0.052 0.015,0.021 0.026,0.045 0.042,0.065 0.003,0.003 0.006,0.007 0.009,0.01 0.023,0.027 0.051,0.047 0.077,0.072 0.034,0.032 0.065,0.067 0.103,0.094 0.003,0.002 0.006,0.004 0.009,0.006 0.027,0.019 0.058,0.03 0.086,0.046 0.04,0.022 0.077,0.049 0.12,0.066 0.004,0.002 0.009,0.001 0.014,0.003 0.006,0.002 0.01,0.006 0.016,0.008 l 50.29,17.922 c 0.109,0.039 0.223,0.058 0.335,0.058 0.114,0 0.227,-0.023 0.335,-0.061 0.036,-0.013 0.066,-0.036 0.1,-0.053 0.057,-0.028 0.117,-0.05 0.169,-0.089 0.014,-0.01 0.023,-0.024 0.036,-0.035 0.008,-0.007 0.018,-0.009 0.026,-0.016 L 90.351,64.65 c 0.034,-0.03 0.058,-0.069 0.087,-0.104 0.027,-0.031 0.056,-0.059 0.078,-0.094 0.005,-0.008 0.014,-0.014 0.019,-0.023 l 0.787,-1.271 c 0.028,0.003 0.054,0.014 0.083,0.014 0.009,0 0.018,0 0.027,0 0.381,0 0.73,-0.217 0.898,-0.56 l 2.567,-5.239 c 0,0 0,-10e-4 0,-10e-4 0.05,-0.101 0.075,-0.21 0.088,-0.322 0.002,-0.017 0.005,-0.033 0.006,-0.051 0.002,-0.024 -0.001,-0.046 -0.001,-0.07 0.001,-0.118 -0.013,-0.24 -0.059,-0.357 z"
   id="path2"
   style="fill:#000000" /><rect
   style="fill:#ff00ff;stroke-width:10.0271"
   id="rect64"
   width="112.5"
   height="97.439758"
   x="164.45782"
   y="7.5301204" /><path
   d="m 92.763,57.187 c -0.041,-0.044 -0.075,-0.093 -0.125,-0.13 -0.363,-0.269 -0.859,-0.262 -1.214,0.017 L 90.62,57.705 77.333,26.43 l 1.718,-3.858 0.205,-0.459 13.653,34.778 z"
   id="path123"
   style="fill:#d4aa00" /><path
   d="M 88.841,63.318 58.58,90.286 58.269,85.643 89.781,60.907 Z"
   id="path121"
   style="fill:#d4aa00" /><path
   d="m 52.993,82.369 c -0.281,0.005 -0.542,-0.002 -0.814,-0.003 L 23.259,72.314 c -0.414,-0.54 -0.747,-1.085 -0.984,-1.635 -0.263,-0.609 -0.961,-2.227 -0.744,-4.208 0.383,-3.503 3.431,-5.818 5.655,-7.508 3.116,-2.368 7.063,-4.171 11.729,-5.359 4.093,-1.042 7.913,-1.394 11.207,-1.394 3.82,0 6.932,0.474 8.934,0.892 3.269,0.682 9.352,1.953 14.488,6.625 2.299,2.091 3.605,4.098 3.884,5.964 0.126,0.848 0.084,1.653 -0.054,2.411 L 60.021,81.725 c -2.851,0.558 -5.297,0.611 -7.028,0.644 z"
   id="path119"
   style="fill:#ffad77;fill-opacity:1" /><path
   d="M 8.297,73.719 7.326,68.893 56.282,85.91 56.618,90.939 Z"
   id="path117"
   style="fill:#ffe680" /><path
   d="m 39.341,45.105 0.954,4.439 -3.613,2.605 c -4.179,1.244 -7.774,2.996 -10.705,5.223 -1.961,1.49 -4.746,3.613 -5.923,6.765 L 13.443,68.903 8.169,67.07 Z"
   id="path113"
   style="fill:#d4aa00" /><path
   d="m 23.641,15.166 5.454,1.273 14.096,26.815 -1.789,1.92 -0.423,-1.967 C 40.909,42.879 40.678,42.608 40.366,42.486 40.053,42.362 39.7,42.405 39.426,42.6 l -0.695,0.49 z"
   id="path111"
   style="fill:#d4aa00" /><path
   d="M 45.089,42.566 31.671,17.041 75.52,27.279 86.852,53.951 Z"
   id="path109"
   style="fill:#ffe680" /><path
   d="M 75.405,58.742 C 75.234,58.577 75.072,58.413 74.89,58.248 69.35,53.209 62.92,51.867 59.465,51.145 56.748,50.578 52.074,49.917 46.367,50.362 l -3.565,-1.029 2.161,-4.729 42.885,11.691 1.142,2.689 -3.426,2.69 z"
   id="path105"
   style="fill:#ffd72f;fill-opacity:1" /><path
   d="M 26.049,8.735 77.902,20.236 75.665,25.258 23.306,13.034 Z"
   id="path103"
   style="fill:#ffe680" />
  <path
   d="m 48.523,68.531 c 0.105,0.464 0.518,0.779 0.975,0.779 0.073,0 0.147,-0.008 0.222,-0.024 0.539,-0.122 0.876,-0.658 0.755,-1.196 -0.534,-2.357 -1.843,-3.417 -4.379,-3.544 -0.533,-0.022 -1.021,0.397 -1.048,0.949 -0.028,0.551 0.397,1.021 0.949,1.048 1.649,0.082 2.192,0.51 2.526,1.988 z"
   id="path4"
   style="fill:#de8787" />
  <path
   d="m 59.568,65.526 c 0.037,0 0.073,-0.002 0.11,-0.006 0.549,-0.061 0.944,-0.549 0.883,-1.098 0.02,-0.161 0.458,-0.73 1.634,-1.369 0.485,-0.264 0.666,-0.871 0.402,-1.356 -0.263,-0.485 -0.872,-0.664 -1.356,-0.402 -1.308,0.71 -2.832,1.864 -2.668,3.333 0.058,0.514 0.492,0.898 0.995,0.898 z"
   id="path6"
   style="fill:#de8787" />
  <path
   d="m 40.798,59.936 c 0.042,0.005 0.084,0.008 0.125,0.008 0.23,0 0.455,-0.08 0.635,-0.228 0.212,-0.174 0.344,-0.429 0.363,-0.703 0.125,-1.805 -1.183,-3.559 -1.333,-3.753 -0.296,-0.385 -0.826,-0.5 -1.257,-0.275 l -3.79,1.991 c -0.264,0.139 -0.452,0.388 -0.514,0.681 -0.061,0.292 0.012,0.596 0.198,0.829 0.215,0.268 0.663,0.828 5.573,1.45 z"
   id="path8"
   style="fill:#008a00;fill-opacity:1" />
  <path
   d="m 45.762,75.453 c 0.18,-0.522 -0.097,-1.091 -0.619,-1.272 -0.544,-0.188 -3.376,-1.104 -5.723,-0.696 -0.544,0.095 -0.908,0.613 -0.813,1.157 0.095,0.543 0.61,0.907 1.157,0.813 1.444,-0.251 3.449,0.174 4.726,0.616 0.108,0.037 0.218,0.055 0.327,0.055 0.414,10e-4 0.802,-0.259 0.945,-0.673 z"
   id="path10"
   style="fill:#de8787" />
  <path
   d="m 71.853,67.361 c -1.107,0.369 -3.434,0.395 -3.776,-0.062 -0.33,-0.44 -0.957,-0.531 -1.4,-0.2 -0.442,0.331 -0.531,0.958 -0.2,1.4 0.666,0.888 1.97,1.14 3.204,1.14 1.268,0 2.461,-0.267 2.804,-0.381 0.524,-0.174 0.808,-0.741 0.633,-1.265 -0.175,-0.523 -0.743,-0.807 -1.265,-0.632 z"
   id="path12"
   style="fill:#de8787" />
  <path
   d="m 46.302,57.222 c 1.624,0 2.895,-1.047 2.895,-2.383 0,-1.336 -1.271,-2.383 -2.895,-2.383 -1.624,0 -2.896,1.047 -2.896,2.383 0,1.336 1.272,2.383 2.896,2.383 z"
   id="path14"
   style="fill:#c83737" />
  <path
   d="m 63.634,59.943 c 1.634,0 2.914,-1.037 2.914,-2.361 0,-1.324 -1.28,-2.361 -2.914,-2.361 -1.634,0 -2.915,1.037 -2.915,2.361 0,1.324 1.281,2.361 2.915,2.361 z"
   id="path16"
   style="fill:#c83737" />
  <ellipse
   cx="72.143"
   cy="64.212"
   rx="2.665"
   ry="2.332"
   id="ellipse18"
   style="fill:#c83737" />
  <path
   d="m 61.307,73.471 c -1.564,0 -2.744,0.889 -2.744,2.068 0,1.179 1.18,2.069 2.744,2.069 1.564,0 2.744,-0.89 2.744,-2.069 0,-1.179 -1.18,-2.068 -2.744,-2.068 z"
   id="path20"
   style="fill:#c83737" />
  <path
   d="m 55.548,72.408 c 0,-1.271 -1.298,-2.229 -3.02,-2.229 -1.722,0 -3.02,0.958 -3.02,2.229 0,1.271 1.298,2.229 3.02,2.229 1.722,0 3.02,-0.959 3.02,-2.229 z"
   id="path22"
   style="fill:#c83737" />
  <path
   d="m 40.592,68.874 c 0,-1.125 -1.201,-1.974 -2.793,-1.974 -1.592,0 -2.792,0.849 -2.792,1.974 0,1.125 1.201,1.973 2.792,1.973 1.592,0 2.793,-0.848 2.793,-1.973 z"
   id="path24"
   style="fill:#c83737" />
  <path
   d="m 30.757,64.446 c 0,-1.196 -1.228,-2.098 -2.857,-2.098 -1.629,0 -2.857,0.902 -2.857,2.098 0,1.196 1.228,2.098 2.857,2.098 1.629,0 2.857,-0.902 2.857,-2.098 z"
   id="path26"
   style="fill:#c83737" />
  <path
   d="m 44.382,62.294 c 0,-1.17 -1.201,-2.053 -2.792,-2.053 -1.592,0 -2.793,0.883 -2.793,2.053 0,1.17 1.201,2.053 2.793,2.053 1.591,0.001 2.792,-0.882 2.792,-2.053 z"
   id="path28"
   style="fill:#c83737" />
  <path
   d="m 57.29,62.06 c 0,1.055 -1.088,1.82 -2.588,1.82 -1.499,0 -2.587,-0.765 -2.587,-1.82 0,-1.054 1.088,-1.819 2.587,-1.819 1.499,0 2.588,0.765 2.588,1.819 z"
   id="path30"
   style="fill:#c83737;fill-opacity:1" />
  
  <path
   d="m 47.772,75.608 c -1.529,0 -2.727,0.912 -2.727,2.076 0,1.164 1.198,2.075 2.727,2.075 1.529,0 2.727,-0.912 2.727,-2.075 0,-1.164 -1.198,-2.076 -2.727,-2.076 z"
   id="path34"
   style="fill:#c83737" />
  <path
   d="m 48.674,63.284 c 0.046,0.007 0.093,0.01 0.138,0.01 0.491,0 0.919,-0.362 0.99,-0.862 0.091,-0.646 0.583,-2.609 1.617,-3.139 0.492,-0.252 0.686,-0.854 0.434,-1.346 -0.253,-0.492 -0.854,-0.687 -1.346,-0.434 -2.144,1.099 -2.637,4.287 -2.686,4.647 -0.075,0.546 0.307,1.048 0.853,1.124 z"
   id="path36"
   style="fill:#de8787" />
  <path
   d="m 61.142,70.833 c 0.056,0.009 0.111,0.014 0.166,0.014 0.48,0 0.903,-0.346 0.985,-0.835 0.091,-0.545 -0.277,-1.06 -0.821,-1.151 -1.971,-0.33 -4.028,-1.028 -4.319,-1.466 -0.278,-0.476 -0.89,-0.636 -1.367,-0.358 -0.477,0.278 -0.638,0.891 -0.36,1.368 0.861,1.474 4.284,2.189 5.716,2.428 z"
   id="path38"
   style="fill:#de8787" />
  <path
   d="m 52.713,55.822 c 0.987,-0.184 2.853,0.979 3.863,1.866 0.19,0.167 0.425,0.248 0.66,0.248 0.277,0 0.554,-0.115 0.751,-0.34 0.364,-0.415 0.324,-1.045 -0.09,-1.41 -0.323,-0.284 -3.214,-2.764 -5.552,-2.33 -0.543,0.102 -0.9,0.624 -0.799,1.167 0.101,0.542 0.623,0.9 1.167,0.799 z"
   id="path40"
   style="fill:#de8787" />
  <path
   d="m 35.537,63.949 c -0.11,-0.402 -1.139,-3.952 -3.417,-4.566 -0.534,-0.144 -1.083,0.172 -1.226,0.705 -0.144,0.533 0.171,1.082 0.705,1.226 0.838,0.227 1.694,2.021 2.009,3.163 0.122,0.444 0.525,0.735 0.964,0.735 0.087,0 0.176,-0.012 0.265,-0.036 0.531,-0.146 0.845,-0.695 0.7,-1.227 z"
   id="path42"
   style="fill:#de8787" />
  <path
   d="m 58.811,77.263 -2.868,-1.537 c -0.258,-0.138 -0.563,-0.156 -0.836,-0.05 -0.272,0.106 -0.485,0.327 -0.581,0.604 l -0.922,2.663 c -0.174,0.503 0.077,1.055 0.57,1.254 0.386,0.156 0.951,0.287 1.586,0.287 1.108,0 2.431,-0.399 3.395,-1.764 0.165,-0.234 0.222,-0.528 0.156,-0.807 -0.066,-0.279 -0.248,-0.515 -0.5,-0.65 z"
   id="path44"
   style="fill:#008a00;fill-opacity:1" />
  <path
   d="m 65.711,60.331 c -0.766,0.347 -1.98,1.615 -1.098,3.93 0.151,0.397 0.53,0.644 0.935,0.644 0.103,0 0.208,-0.016 0.311,-0.049 l 3.137,-1.024 c 0.367,-0.12 0.632,-0.441 0.682,-0.824 0.049,-0.383 -0.127,-0.76 -0.453,-0.969 L 66.664,60.4 c -0.286,-0.183 -0.643,-0.21 -0.953,-0.069 z"
   id="path46"
   style="fill:#008a00;fill-opacity:1" />
  <path
   d="m 42.052,72.167 c 0.22,0.034 0.439,0.049 0.658,0.049 2.155,0 4.117,-1.51 4.208,-1.581 0.253,-0.197 0.396,-0.504 0.384,-0.825 -0.012,-0.321 -0.178,-0.617 -0.445,-0.795 l -2.92,-1.947 c -0.256,-0.171 -0.577,-0.214 -0.868,-0.118 -0.292,0.097 -0.523,0.322 -0.627,0.612 l -1.178,3.278 c -0.101,0.281 -0.071,0.592 0.082,0.849 0.151,0.257 0.411,0.432 0.706,0.478 z"
   id="path48"
   style="fill:#008a00;fill-opacity:1" />
  <path
   d="m 69.958,71.183 -3.79,-0.973 c -0.326,-0.083 -0.675,0.003 -0.924,0.232 -0.25,0.229 -0.366,0.567 -0.311,0.901 l 0.41,2.458 c 0.072,0.433 0.418,0.769 0.854,0.827 0.131,0.018 0.262,0.025 0.393,0.025 1.815,0 3.587,-1.573 3.796,-1.765 0.271,-0.248 0.383,-0.625 0.294,-0.98 -0.09,-0.355 -0.367,-0.634 -0.722,-0.725 z"
   id="path50"
   style="fill:#008a00;fill-opacity:1" />
  
  
<path
   d="m 20.37,71.31 -4.62,-1.606 3.749,-2.703 c -0.051,2.001 0.555,3.566 0.871,4.309 z"
   id="path115"
   style="fill:#ffe680;fill-opacity:1" /><path
   d="m 83.625,63.197 -4.13,3.242 C 79.483,66.098 79.459,65.752 79.406,65.397 79.215,64.118 78.66,62.819 77.774,61.509 Z"
   id="path107"
   style="fill:#ffe680;fill-opacity:1" /><path
   d="m 31.305,70.191 c 0.092,-0.25 0.09,-0.533 -0.038,-0.79 -0.417,-0.836 -3.151,-2.496 -4.317,-2.957 -0.515,-0.203 -1.094,0.049 -1.298,0.563 -0.203,0.514 0.049,1.095 0.563,1.298 1.181,0.467 2.989,1.726 3.31,2.073 0.016,0.025 0.037,0.043 0.054,0.066 1.48126,0.741943 1.616702,0.339514 1.726,-0.253 z"
   id="path32-2"
   style="fill:#de8787;fill-opacity:1"
   sodipodi:nodetypes="cccccccc" /><path
   d="m 31.305,70.191 c -0.741834,-0.0029 -0.964129,0.0081 -1.726,0.253 -0.876,0.331 -1.435,0.946 -1.435,1.709 0,1.144 1.243,1.973 2.957,1.973 1.714,0 2.957,-0.83 2.957,-1.973 -0.002,-1.098 -1.15,-1.897 -2.753,-1.962 z"
   id="path32"
   style="fill:#c83737"
   sodipodi:nodetypes="ccsscc" /></svg>
