<svg xmlns="http://www.w3.org/2000/svg"
  xmlns:xlink="http://www.w3.org/1999/xlink" version="1.1" x="0px" y="0px" viewBox="0 0 100 125" style="enable-background:new 0 0 100 100;" xml:space="preserve">
  <path d="M94.931,56.572c0-0.001,0-0.002,0-0.002c0,0-0.001-0.001-0.001-0.001L80.244,19.16c-0.008-0.02-0.021-0.037-0.03-0.056  c-0.004-0.009-0.003-0.02-0.007-0.029c-0.006-0.012-0.018-0.018-0.025-0.03c-0.023-0.042-0.045-0.084-0.074-0.122  c-0.018-0.024-0.039-0.043-0.059-0.065c-0.035-0.039-0.07-0.078-0.111-0.11c-0.009-0.007-0.018-0.013-0.028-0.021  c-0.024-0.018-0.05-0.033-0.076-0.048c-0.049-0.03-0.099-0.055-0.152-0.076c-0.032-0.013-0.064-0.025-0.098-0.035  c-0.018-0.005-0.035-0.015-0.054-0.019L25.798,6.631c-0.025-0.006-0.05-0.002-0.076-0.006c-0.033-0.005-0.065-0.016-0.099-0.017  c-0.021-0.001-0.04,0.005-0.061,0.005c-0.019,0-0.039-0.003-0.058-0.002c-0.022,0.002-0.043,0.009-0.065,0.012  c-0.056,0.008-0.11,0.02-0.163,0.037c-0.018,0.006-0.036,0.01-0.054,0.017c-0.015,0.006-0.03,0.012-0.045,0.019  C25.126,6.72,25.077,6.748,25.03,6.78c-0.021,0.014-0.041,0.027-0.061,0.043c-0.011,0.009-0.024,0.016-0.035,0.025  c-0.036,0.031-0.067,0.068-0.098,0.104C24.821,6.97,24.802,6.982,24.788,7c-0.008,0.01-0.011,0.023-0.019,0.034  c-0.009,0.013-0.021,0.023-0.03,0.036l-0.223,0.349l-3.652,5.723c-0.004,0.006-0.004,0.014-0.007,0.02  c-0.062,0.101-0.099,0.211-0.122,0.324c-0.003,0.015-0.014,0.027-0.016,0.042l-0.001,0.006c-0.002,0.014,0.003,0.028,0.002,0.042  c-0.012,0.11-0.013,0.222,0.012,0.331c0,0.002,0,0.004,0.001,0.006c0.02,0.086,0.051,0.169,0.094,0.249l16.258,30.087L5.424,66.556  c-0.013,0.01-0.022,0.023-0.035,0.033c-0.015,0.011-0.032,0.018-0.046,0.031c-0.027,0.023-0.045,0.053-0.069,0.078  c-0.028,0.03-0.056,0.058-0.08,0.091c-0.032,0.044-0.056,0.091-0.08,0.139c-0.017,0.033-0.036,0.065-0.049,0.1  c-0.021,0.056-0.031,0.114-0.042,0.173c-0.005,0.031-0.016,0.06-0.018,0.092c-0.008,0.092-0.004,0.185,0.015,0.278l1.428,7.097  c0.009,0.044,0.028,0.083,0.042,0.125c0.011,0.032,0.018,0.066,0.032,0.096c0.003,0.006,0.004,0.013,0.007,0.019  c0.014,0.03,0.036,0.054,0.053,0.082c0.011,0.018,0.022,0.035,0.034,0.052c0.015,0.021,0.026,0.045,0.042,0.065  c0.003,0.003,0.006,0.007,0.009,0.01c0.023,0.027,0.051,0.047,0.077,0.072c0.034,0.032,0.065,0.067,0.103,0.094  c0.003,0.002,0.006,0.004,0.009,0.006c0.027,0.019,0.058,0.03,0.086,0.046c0.04,0.022,0.077,0.049,0.12,0.066  c0.004,0.002,0.009,0.001,0.014,0.003c0.006,0.002,0.01,0.006,0.016,0.008l50.29,17.922c0.109,0.039,0.223,0.058,0.335,0.058  c0.114,0,0.227-0.023,0.335-0.061c0.036-0.013,0.066-0.036,0.1-0.053c0.057-0.028,0.117-0.05,0.169-0.089  c0.014-0.01,0.023-0.024,0.036-0.035c0.008-0.007,0.018-0.009,0.026-0.016l31.968-28.488c0.034-0.03,0.058-0.069,0.087-0.104  c0.027-0.031,0.056-0.059,0.078-0.094c0.005-0.008,0.014-0.014,0.019-0.023l0.787-1.271c0.028,0.003,0.054,0.014,0.083,0.014  c0.009,0,0.018,0,0.027,0c0.381,0,0.73-0.217,0.898-0.56l2.567-5.239c0,0,0-0.001,0-0.001c0.05-0.101,0.075-0.21,0.088-0.322  c0.002-0.017,0.005-0.033,0.006-0.051c0.002-0.024-0.001-0.046-0.001-0.07C94.991,56.811,94.977,56.689,94.931,56.572z   M26.049,8.735l51.853,11.501l-2.237,5.022L23.306,13.034L26.049,8.735z M75.405,58.742c-0.171-0.165-0.333-0.329-0.515-0.494  c-5.54-5.039-11.97-6.381-15.425-7.103c-2.717-0.567-7.391-1.228-13.098-0.783l-3.565-1.029l2.161-4.729l42.885,11.691l1.142,2.689  l-3.426,2.69L75.405,58.742z M83.625,63.197l-4.13,3.242c-0.012-0.341-0.036-0.687-0.089-1.042  c-0.191-1.279-0.746-2.578-1.632-3.888L83.625,63.197z M45.089,42.566L31.671,17.041L75.52,27.279l11.332,26.672L45.089,42.566z   M23.641,15.166l5.454,1.273l14.096,26.815l-1.789,1.92l-0.423-1.967c-0.07-0.328-0.301-0.599-0.613-0.721  c-0.313-0.124-0.666-0.081-0.94,0.114l-0.695,0.49L23.641,15.166z M39.341,45.105l0.954,4.439l-3.613,2.605  c-4.179,1.244-7.774,2.996-10.705,5.223c-1.961,1.49-4.746,3.613-5.923,6.765l-6.611,4.766l-5.274-1.833L39.341,45.105z   M20.37,71.31l-4.62-1.606l3.749-2.703C19.448,69.002,20.054,70.567,20.37,71.31z M8.297,73.719l-0.971-4.826L56.282,85.91  l0.336,5.029L8.297,73.719z M52.993,82.369c-0.281,0.005-0.542-0.002-0.814-0.003L23.259,72.314  c-0.414-0.54-0.747-1.085-0.984-1.635c-0.263-0.609-0.961-2.227-0.744-4.208c0.383-3.503,3.431-5.818,5.655-7.508  c3.116-2.368,7.063-4.171,11.729-5.359c4.093-1.042,7.913-1.394,11.207-1.394c3.82,0,6.932,0.474,8.934,0.892  c3.269,0.682,9.352,1.953,14.488,6.625c2.299,2.091,3.605,4.098,3.884,5.964c0.126,0.848,0.084,1.653-0.054,2.411L60.021,81.725  C57.17,82.283,54.724,82.336,52.993,82.369z M88.841,63.318L58.58,90.286l-0.311-4.643l31.512-24.736L88.841,63.318z M92.763,57.187  c-0.041-0.044-0.075-0.093-0.125-0.13c-0.363-0.269-0.859-0.262-1.214,0.017l-0.804,0.631L77.333,26.43l1.718-3.858l0.205-0.459  l13.653,34.778L92.763,57.187z"/>
  <path d="M48.523,68.531c0.105,0.464,0.518,0.779,0.975,0.779c0.073,0,0.147-0.008,0.222-0.024c0.539-0.122,0.876-0.658,0.755-1.196  c-0.534-2.357-1.843-3.417-4.379-3.544c-0.533-0.022-1.021,0.397-1.048,0.949c-0.028,0.551,0.397,1.021,0.949,1.048  C47.646,66.625,48.189,67.053,48.523,68.531z"/>
  <path d="M59.568,65.526c0.037,0,0.073-0.002,0.11-0.006c0.549-0.061,0.944-0.549,0.883-1.098c0.02-0.161,0.458-0.73,1.634-1.369  c0.485-0.264,0.666-0.871,0.402-1.356c-0.263-0.485-0.872-0.664-1.356-0.402c-1.308,0.71-2.832,1.864-2.668,3.333  C58.631,65.142,59.065,65.526,59.568,65.526z"/>
  <path d="M40.798,59.936c0.042,0.005,0.084,0.008,0.125,0.008c0.23,0,0.455-0.08,0.635-0.228c0.212-0.174,0.344-0.429,0.363-0.703  c0.125-1.805-1.183-3.559-1.333-3.753c-0.296-0.385-0.826-0.5-1.257-0.275l-3.79,1.991c-0.264,0.139-0.452,0.388-0.514,0.681  c-0.061,0.292,0.012,0.596,0.198,0.829C35.44,58.754,35.888,59.314,40.798,59.936z"/>
  <path d="M45.762,75.453c0.18-0.522-0.097-1.091-0.619-1.272c-0.544-0.188-3.376-1.104-5.723-0.696  c-0.544,0.095-0.908,0.613-0.813,1.157c0.095,0.543,0.61,0.907,1.157,0.813c1.444-0.251,3.449,0.174,4.726,0.616  c0.108,0.037,0.218,0.055,0.327,0.055C45.231,76.127,45.619,75.867,45.762,75.453z"/>
  <path d="M71.853,67.361c-1.107,0.369-3.434,0.395-3.776-0.062c-0.33-0.44-0.957-0.531-1.4-0.2c-0.442,0.331-0.531,0.958-0.2,1.4  c0.666,0.888,1.97,1.14,3.204,1.14c1.268,0,2.461-0.267,2.804-0.381c0.524-0.174,0.808-0.741,0.633-1.265  C72.943,67.47,72.375,67.186,71.853,67.361z"/>
  <path d="M46.302,57.222c1.624,0,2.895-1.047,2.895-2.383c0-1.336-1.271-2.383-2.895-2.383s-2.896,1.047-2.896,2.383  C43.406,56.175,44.678,57.222,46.302,57.222z"/>
  <path d="M63.634,59.943c1.634,0,2.914-1.037,2.914-2.361s-1.28-2.361-2.914-2.361s-2.915,1.037-2.915,2.361S62,59.943,63.634,59.943  z"/>
  <ellipse cx="72.143" cy="64.212" rx="2.665" ry="2.332"/>
  <path d="M61.307,73.471c-1.564,0-2.744,0.889-2.744,2.068s1.18,2.069,2.744,2.069s2.744-0.89,2.744-2.069  S62.871,73.471,61.307,73.471z"/>
  <path d="M55.548,72.408c0-1.271-1.298-2.229-3.02-2.229s-3.02,0.958-3.02,2.229c0,1.271,1.298,2.229,3.02,2.229  S55.548,73.678,55.548,72.408z"/>
  <path d="M40.592,68.874c0-1.125-1.201-1.974-2.793-1.974c-1.592,0-2.792,0.849-2.792,1.974s1.201,1.973,2.792,1.973  C39.391,70.847,40.592,69.999,40.592,68.874z"/>
  <path d="M30.757,64.446c0-1.196-1.228-2.098-2.857-2.098s-2.857,0.902-2.857,2.098s1.228,2.098,2.857,2.098  S30.757,65.642,30.757,64.446z"/>
  <path d="M44.382,62.294c0-1.17-1.201-2.053-2.792-2.053c-1.592,0-2.793,0.883-2.793,2.053s1.201,2.053,2.793,2.053  C43.181,64.348,44.382,63.465,44.382,62.294z"/>
  <path d="M57.29,62.061c0-1.055-1.088-1.82-2.588-1.82c-1.499,0-2.587,0.765-2.587,1.82c0,1.054,1.088,1.819,2.587,1.819  C56.201,63.88,57.29,63.115,57.29,62.061z"/>
  <path d="M31.305,70.191c0.092-0.25,0.09-0.533-0.038-0.79c-0.417-0.836-3.151-2.496-4.317-2.957  c-0.515-0.203-1.094,0.049-1.298,0.563c-0.203,0.514,0.049,1.095,0.563,1.298c1.181,0.467,2.989,1.726,3.31,2.073  c0.016,0.025,0.037,0.043,0.054,0.066c-0.876,0.331-1.435,0.946-1.435,1.709c0,1.144,1.243,1.973,2.957,1.973  s2.957-0.83,2.957-1.973C34.056,71.055,32.908,70.256,31.305,70.191z"/>
  <path d="M47.772,75.608c-1.529,0-2.727,0.912-2.727,2.076c0,1.164,1.198,2.075,2.727,2.075s2.727-0.912,2.727-2.075  C50.499,76.52,49.301,75.608,47.772,75.608z"/>
  <path d="M48.674,63.284c0.046,0.007,0.093,0.01,0.138,0.01c0.491,0,0.919-0.362,0.99-0.862c0.091-0.646,0.583-2.609,1.617-3.139  c0.492-0.252,0.686-0.854,0.434-1.346c-0.253-0.492-0.854-0.687-1.346-0.434c-2.144,1.099-2.637,4.287-2.686,4.647  C47.746,62.706,48.128,63.208,48.674,63.284z"/>
  <path d="M61.142,70.833c0.056,0.009,0.111,0.014,0.166,0.014c0.48,0,0.903-0.346,0.985-0.835c0.091-0.545-0.277-1.06-0.821-1.151  c-1.971-0.33-4.028-1.028-4.319-1.466c-0.278-0.476-0.89-0.636-1.367-0.358c-0.477,0.278-0.638,0.891-0.36,1.368  C56.287,69.879,59.71,70.594,61.142,70.833z"/>
  <path d="M52.713,55.822c0.987-0.184,2.853,0.979,3.863,1.866c0.19,0.167,0.425,0.248,0.66,0.248c0.277,0,0.554-0.115,0.751-0.34  c0.364-0.415,0.324-1.045-0.09-1.41c-0.323-0.284-3.214-2.764-5.552-2.33c-0.543,0.102-0.9,0.624-0.799,1.167  C51.647,55.565,52.169,55.923,52.713,55.822z"/>
  <path d="M35.537,63.949c-0.11-0.402-1.139-3.952-3.417-4.566c-0.534-0.144-1.083,0.172-1.226,0.705  c-0.144,0.533,0.171,1.082,0.705,1.226c0.838,0.227,1.694,2.021,2.009,3.163c0.122,0.444,0.525,0.735,0.964,0.735  c0.087,0,0.176-0.012,0.265-0.036C35.368,65.03,35.682,64.481,35.537,63.949z"/>
  <path d="M58.811,77.263l-2.868-1.537c-0.258-0.138-0.563-0.156-0.836-0.05c-0.272,0.106-0.485,0.327-0.581,0.604l-0.922,2.663  c-0.174,0.503,0.077,1.055,0.57,1.254c0.386,0.156,0.951,0.287,1.586,0.287c1.108,0,2.431-0.399,3.395-1.764  c0.165-0.234,0.222-0.528,0.156-0.807S59.063,77.398,58.811,77.263z"/>
  <path d="M65.711,60.331c-0.766,0.347-1.98,1.615-1.098,3.93c0.151,0.397,0.53,0.644,0.935,0.644c0.103,0,0.208-0.016,0.311-0.049  l3.137-1.024c0.367-0.12,0.632-0.441,0.682-0.824c0.049-0.383-0.127-0.76-0.453-0.969l-2.561-1.639  C66.378,60.217,66.021,60.19,65.711,60.331z"/>
  <path d="M42.052,72.167c0.22,0.034,0.439,0.049,0.658,0.049c2.155,0,4.117-1.51,4.208-1.581c0.253-0.197,0.396-0.504,0.384-0.825  c-0.012-0.321-0.178-0.617-0.445-0.795l-2.92-1.947c-0.256-0.171-0.577-0.214-0.868-0.118c-0.292,0.097-0.523,0.322-0.627,0.612  l-1.178,3.278c-0.101,0.281-0.071,0.592,0.082,0.849C41.497,71.946,41.757,72.121,42.052,72.167z"/>
  <path d="M69.958,71.183l-3.79-0.973c-0.326-0.083-0.675,0.003-0.924,0.232c-0.25,0.229-0.366,0.567-0.311,0.901l0.41,2.458  c0.072,0.433,0.418,0.769,0.854,0.827c0.131,0.018,0.262,0.025,0.393,0.025c1.815,0,3.587-1.573,3.796-1.765  c0.271-0.248,0.383-0.625,0.294-0.98C70.59,71.553,70.313,71.274,69.958,71.183z"/>
  <text x="0" y="115" fill="#000000" font-size="5px" font-weight="bold" font-family="'Helvetica Neue', Helvetica, Arial-Unicode, Arial, Sans-serif">Created by Arthur Shlain</text>
  <text x="0" y="120" fill="#000000" font-size="5px" font-weight="bold" font-family="'Helvetica Neue', Helvetica, Arial-Unicode, Arial, Sans-serif">from the Noun Project</text>
</svg>