<?xml version="1.0" encoding="UTF-8" standalone="no"?>
<svg
   xmlns:dc="http://purl.org/dc/elements/1.1/"
   xmlns:cc="http://creativecommons.org/ns#"
   xmlns:rdf="http://www.w3.org/1999/02/22-rdf-syntax-ns#"
   xmlns:svg="http://www.w3.org/2000/svg"
   xmlns="http://www.w3.org/2000/svg"
   xmlns:sodipodi="http://sodipodi.sourceforge.net/DTD/sodipodi-0.dtd"
   xmlns:inkscape="http://www.inkscape.org/namespaces/inkscape"
   version="1.1"
   x="0px"
   y="0px"
   viewBox="0 0 100.20017 100.20017"
   xml:space="preserve"
   id="svg56"
   sodipodi:docname="pizzabox-btn.svg"
   inkscape:version="1.0.2-2 (e86c870879, 2021-01-15)"
   width="100.20017"
   height="100.20017"><metadata
   id="metadata62"><rdf:RDF><cc:Work
       rdf:about=""><dc:format>image/svg+xml</dc:format><dc:type
         rdf:resource="http://purl.org/dc/dcmitype/StillImage" /><dc:title></dc:title></cc:Work></rdf:RDF></metadata><defs
   id="defs60" /><sodipodi:namedview
   pagecolor="#ffffff"
   bordercolor="#666666"
   borderopacity="1"
   objecttolerance="10"
   gridtolerance="10"
   guidetolerance="10"
   inkscape:pageopacity="0"
   inkscape:pageshadow="2"
   inkscape:window-width="1920"
   inkscape:window-height="1001"
   id="namedview58"
   showgrid="false"
   inkscape:zoom="3.32"
   inkscape:cx="27.400331"
   inkscape:cy="66.010886"
   inkscape:window-x="-9"
   inkscape:window-y="1341"
   inkscape:window-maximized="1"
   inkscape:current-layer="svg56"
   inkscape:document-rotation="0" />
  <path
   d="m 93.327892,57.450084 c 0,-10e-4 0,-0.002 0,-0.002 0,0 -0.001,-0.001 -0.001,-0.001 l -14.686,-37.409 c -0.008,-0.02 -0.021,-0.037 -0.03,-0.056 -0.004,-0.009 -0.003,-0.02 -0.007,-0.029 -0.006,-0.012 -0.018,-0.018 -0.025,-0.03 -0.023,-0.042 -0.045,-0.084 -0.074,-0.122 -0.018,-0.024 -0.039,-0.043 -0.059,-0.065 -0.035,-0.039 -0.07,-0.078 -0.111,-0.11 -0.009,-0.007 -0.018,-0.013 -0.028,-0.021 -0.024,-0.018 -0.05,-0.033 -0.076,-0.048 -0.049,-0.03 -0.099,-0.055 -0.152,-0.076 -0.032,-0.013 -0.064,-0.025 -0.098,-0.035 -0.018,-0.005 -0.035,-0.015 -0.054,-0.019 l -53.732,-11.9180005 c -0.025,-0.006 -0.05,-0.002 -0.076,-0.006 -0.033,-0.005 -0.065,-0.016 -0.099,-0.017 -0.021,-0.001 -0.04,0.005 -0.061,0.005 -0.019,0 -0.039,-0.003 -0.058,-0.002 -0.022,0.002 -0.043,0.009 -0.065,0.012 -0.056,0.008 -0.11,0.02 -0.163,0.037 -0.018,0.006 -0.036,0.01 -0.054,0.017 -0.015,0.006 -0.03,0.012 -0.045,0.019 -0.051,0.024 -0.1,0.052 -0.147,0.084 -0.021,0.014 -0.041,0.027 -0.061,0.043 -0.011,0.009 -0.024,0.016 -0.035,0.025 -0.036,0.031 -0.067,0.068 -0.098,0.104 -0.015,0.018 -0.034,0.03 -0.048,0.048 -0.008,0.01 -0.011,0.023 -0.019,0.034 -0.009,0.013 -0.021,0.023 -0.03,0.036 l -0.223,0.349 -3.652,5.7230005 c -0.004,0.006 -0.004,0.014 -0.007,0.02 -0.062,0.101 -0.099,0.211 -0.122,0.324 -0.003,0.015 -0.014,0.027 -0.016,0.042 l -10e-4,0.006 c -0.002,0.014 0.003,0.028 0.002,0.042 -0.012,0.11 -0.013,0.222 0.012,0.331 0,0.002 0,0.004 0.001,0.006 0.02,0.086 0.051,0.169 0.094,0.249 l 16.258,30.087 -31.6610003,22.307 c -0.013,0.01 -0.022,0.023 -0.035,0.033 -0.015,0.011 -0.032,0.018 -0.046,0.031 -0.027,0.023 -0.045,0.053 -0.069,0.078 -0.028,0.03 -0.056,0.058 -0.08,0.091 -0.032,0.044 -0.056,0.091 -0.08,0.139 -0.017,0.033 -0.036,0.065 -0.049,0.1 -0.021,0.056 -0.031,0.114 -0.042,0.173 -0.005,0.031 -0.016,0.06 -0.018,0.092 -0.008,0.092 -0.004,0.185 0.015,0.278 l 1.428,7.097 c 0.009,0.044 0.028,0.083 0.042,0.125 0.011,0.032 0.018,0.066 0.032,0.096 0.003,0.006 0.004,0.013 0.007,0.019 0.014,0.03 0.036,0.054 0.053,0.082 0.011,0.018 0.022,0.035 0.034,0.052 0.015,0.021 0.026,0.045 0.042,0.065 0.003,0.003 0.006,0.007 0.009,0.01 0.023,0.027 0.051,0.047 0.077,0.072 0.034,0.032 0.065,0.067 0.103,0.094 0.003,0.002 0.006,0.004 0.009,0.006 0.027,0.019 0.058,0.03 0.086,0.046 0.04,0.022 0.077,0.049 0.12,0.066 0.004,0.002 0.009,0.001 0.014,0.003 0.006,0.002 0.01,0.006 0.016,0.008 l 50.2900003,17.922 c 0.109,0.039 0.223,0.058 0.335,0.058 0.114,0 0.227,-0.023 0.335,-0.061 0.036,-0.013 0.066,-0.036 0.1,-0.053 0.057,-0.028 0.117,-0.05 0.169,-0.089 0.014,-0.01 0.023,-0.024 0.036,-0.035 0.008,-0.007 0.018,-0.009 0.026,-0.016 l 31.968,-28.488 c 0.034,-0.03 0.058,-0.069 0.087,-0.104 0.027,-0.031 0.056,-0.059 0.078,-0.094 0.005,-0.008 0.014,-0.014 0.019,-0.023 l 0.787,-1.271 c 0.028,0.003 0.054,0.014 0.083,0.014 0.009,0 0.018,0 0.027,0 0.381,0 0.73,-0.217 0.898,-0.56 l 2.567,-5.239 c 0,0 0,-10e-4 0,-10e-4 0.05,-0.101 0.075,-0.21 0.088,-0.322 0.002,-0.017 0.005,-0.033 0.006,-0.051 0.002,-0.024 -10e-4,-0.046 -10e-4,-0.07 10e-4,-0.118 -0.013,-0.24 -0.059,-0.357 z"
   id="path2"
   style="fill:#000000" /><path
   d="m 91.159892,58.065084 c -0.041,-0.044 -0.075,-0.093 -0.125,-0.13 -0.363,-0.269 -0.859,-0.262 -1.214,0.017 l -0.804,0.631 -13.287,-31.275 1.718,-3.858 0.205,-0.459 13.653,34.778 z"
   id="path123"
   style="fill:#d4aa00" /><path
   d="m 87.237892,64.196084 -30.261,26.968 -0.311,-4.643 31.512,-24.736 z"
   id="path121"
   style="fill:#d4aa00" /><path
   d="m 51.389892,83.247084 c -0.281,0.005 -0.542,-0.002 -0.814,-0.003 l -28.92,-10.052 c -0.414,-0.54 -0.747,-1.085 -0.984,-1.635 -0.263,-0.609 -0.961,-2.227 -0.744,-4.208 0.383,-3.503 3.431,-5.818 5.655,-7.508 3.116,-2.368 7.063,-4.171 11.729,-5.359 4.093,-1.042 7.913,-1.394 11.207,-1.394 3.82,0 6.932,0.474 8.934,0.892 3.269,0.682 9.352,1.953 14.488,6.625 2.299,2.091 3.605,4.098 3.884,5.964 0.126,0.848 0.084,1.653 -0.054,2.411 l -17.353,13.623 c -2.851,0.558 -5.297,0.611 -7.028,0.644 z"
   id="path119"
   style="fill:#ffad77;fill-opacity:1" /><path
   d="m 6.6938917,74.597084 -0.971,-4.826 48.9560003,17.017 0.336,5.029 z"
   id="path117"
   style="fill:#ffe680" /><path
   d="m 37.737892,45.983084 0.954,4.439 -3.613,2.605 c -4.179,1.244 -7.774,2.996 -10.705,5.223 -1.961,1.49 -4.746,3.613 -5.923,6.765 l -6.611,4.766 -5.2740003,-1.833 z"
   id="path113"
   style="fill:#d4aa00" /><path
   d="m 22.037892,16.044084 5.454,1.273 14.096,26.815 -1.789,1.92 -0.423,-1.967 c -0.07,-0.328 -0.301,-0.599 -0.613,-0.721 -0.313,-0.124 -0.666,-0.081 -0.94,0.114 l -0.695,0.49 z"
   id="path111"
   style="fill:#d4aa00" /><path
   d="m 43.485892,43.444084 -13.418,-25.525 43.849,10.238 11.332,26.672 z"
   id="path109"
   style="fill:#ffe680" /><path
   d="m 73.801892,59.620084 c -0.171,-0.165 -0.333,-0.329 -0.515,-0.494 -5.54,-5.039 -11.97,-6.381 -15.425,-7.103 -2.717,-0.567 -7.391,-1.228 -13.098,-0.783 l -3.565,-1.029 2.161,-4.729 42.885,11.691 1.142,2.689 -3.426,2.69 z"
   id="path105"
   style="fill:#ffd72f;fill-opacity:1" /><path
   d="m 24.445892,9.6130835 51.853,11.5010005 -2.237,5.022 -52.359,-12.224 z"
   id="path103"
   style="fill:#ffe680" />
  <path
   d="m 46.919892,69.409084 c 0.105,0.464 0.518,0.779 0.975,0.779 0.073,0 0.147,-0.008 0.222,-0.024 0.539,-0.122 0.876,-0.658 0.755,-1.196 -0.534,-2.357 -1.843,-3.417 -4.379,-3.544 -0.533,-0.022 -1.021,0.397 -1.048,0.949 -0.028,0.551 0.397,1.021 0.949,1.048 1.649,0.082 2.192,0.51 2.526,1.988 z"
   id="path4"
   style="fill:#de8787" />
  <path
   d="m 57.964892,66.404084 c 0.037,0 0.073,-0.002 0.11,-0.006 0.549,-0.061 0.944,-0.549 0.883,-1.098 0.02,-0.161 0.458,-0.73 1.634,-1.369 0.485,-0.264 0.666,-0.871 0.402,-1.356 -0.263,-0.485 -0.872,-0.664 -1.356,-0.402 -1.308,0.71 -2.832,1.864 -2.668,3.333 0.058,0.514 0.492,0.898 0.995,0.898 z"
   id="path6"
   style="fill:#de8787" />
  <path
   d="m 39.194892,60.814084 c 0.042,0.005 0.084,0.008 0.125,0.008 0.23,0 0.455,-0.08 0.635,-0.228 0.212,-0.174 0.344,-0.429 0.363,-0.703 0.125,-1.805 -1.183,-3.559 -1.333,-3.753 -0.296,-0.385 -0.826,-0.5 -1.257,-0.275 l -3.79,1.991 c -0.264,0.139 -0.452,0.388 -0.514,0.681 -0.061,0.292 0.012,0.596 0.198,0.829 0.215,0.268 0.663,0.828 5.573,1.45 z"
   id="path8"
   style="fill:#008a00;fill-opacity:1" />
  <path
   d="m 44.158892,76.331084 c 0.18,-0.522 -0.097,-1.091 -0.619,-1.272 -0.544,-0.188 -3.376,-1.104 -5.723,-0.696 -0.544,0.095 -0.908,0.613 -0.813,1.157 0.095,0.543 0.61,0.907 1.157,0.813 1.444,-0.251 3.449,0.174 4.726,0.616 0.108,0.037 0.218,0.055 0.327,0.055 0.414,10e-4 0.802,-0.259 0.945,-0.673 z"
   id="path10"
   style="fill:#de8787" />
  <path
   d="m 70.249892,68.239084 c -1.107,0.369 -3.434,0.395 -3.776,-0.062 -0.33,-0.44 -0.957,-0.531 -1.4,-0.2 -0.442,0.331 -0.531,0.958 -0.2,1.4 0.666,0.888 1.97,1.14 3.204,1.14 1.268,0 2.461,-0.267 2.804,-0.381 0.524,-0.174 0.808,-0.741 0.633,-1.265 -0.175,-0.523 -0.743,-0.807 -1.265,-0.632 z"
   id="path12"
   style="fill:#de8787" />
  <path
   d="m 44.698892,58.100084 c 1.624,0 2.895,-1.047 2.895,-2.383 0,-1.336 -1.271,-2.383 -2.895,-2.383 -1.624,0 -2.896,1.047 -2.896,2.383 0,1.336 1.272,2.383 2.896,2.383 z"
   id="path14"
   style="fill:#c83737" />
  <path
   d="m 62.030892,60.821084 c 1.634,0 2.914,-1.037 2.914,-2.361 0,-1.324 -1.28,-2.361 -2.914,-2.361 -1.634,0 -2.915,1.037 -2.915,2.361 0,1.324 1.281,2.361 2.915,2.361 z"
   id="path16"
   style="fill:#c83737" />
  <ellipse
   cx="70.539886"
   cy="65.090088"
   rx="2.665"
   ry="2.332"
   id="ellipse18"
   style="fill:#c83737" />
  <path
   d="m 59.703892,74.349084 c -1.564,0 -2.744,0.889 -2.744,2.068 0,1.179 1.18,2.069 2.744,2.069 1.564,0 2.744,-0.89 2.744,-2.069 0,-1.179 -1.18,-2.068 -2.744,-2.068 z"
   id="path20"
   style="fill:#c83737" />
  <path
   d="m 53.944892,73.286084 c 0,-1.271 -1.298,-2.229 -3.02,-2.229 -1.722,0 -3.02,0.958 -3.02,2.229 0,1.271 1.298,2.229 3.02,2.229 1.722,0 3.02,-0.959 3.02,-2.229 z"
   id="path22"
   style="fill:#c83737" />
  <path
   d="m 38.988892,69.752084 c 0,-1.125 -1.201,-1.974 -2.793,-1.974 -1.592,0 -2.792,0.849 -2.792,1.974 0,1.125 1.201,1.973 2.792,1.973 1.592,0 2.793,-0.848 2.793,-1.973 z"
   id="path24"
   style="fill:#c83737" />
  <path
   d="m 29.153892,65.324084 c 0,-1.196 -1.228,-2.098 -2.857,-2.098 -1.629,0 -2.857,0.902 -2.857,2.098 0,1.196 1.228,2.098 2.857,2.098 1.629,0 2.857,-0.902 2.857,-2.098 z"
   id="path26"
   style="fill:#c83737" />
  <path
   d="m 42.778892,63.172084 c 0,-1.17 -1.201,-2.053 -2.792,-2.053 -1.592,0 -2.793,0.883 -2.793,2.053 0,1.17 1.201,2.053 2.793,2.053 1.591,0.001 2.792,-0.882 2.792,-2.053 z"
   id="path28"
   style="fill:#c83737" />
  <path
   d="m 55.686892,62.938084 c 0,1.055 -1.088,1.82 -2.588,1.82 -1.499,0 -2.587,-0.765 -2.587,-1.82 0,-1.054 1.088,-1.819 2.587,-1.819 1.499,0 2.588,0.765 2.588,1.819 z"
   id="path30"
   style="fill:#c83737;fill-opacity:1" />
  
  <path
   d="m 46.168892,76.486084 c -1.529,0 -2.727,0.912 -2.727,2.076 0,1.164 1.198,2.075 2.727,2.075 1.529,0 2.727,-0.912 2.727,-2.075 0,-1.164 -1.198,-2.076 -2.727,-2.076 z"
   id="path34"
   style="fill:#c83737" />
  <path
   d="m 47.070892,64.162084 c 0.046,0.007 0.093,0.01 0.138,0.01 0.491,0 0.919,-0.362 0.99,-0.862 0.091,-0.646 0.583,-2.609 1.617,-3.139 0.492,-0.252 0.686,-0.854 0.434,-1.346 -0.253,-0.492 -0.854,-0.687 -1.346,-0.434 -2.144,1.099 -2.637,4.287 -2.686,4.647 -0.075,0.546 0.307,1.048 0.853,1.124 z"
   id="path36"
   style="fill:#de8787" />
  <path
   d="m 59.538892,71.711084 c 0.056,0.009 0.111,0.014 0.166,0.014 0.48,0 0.903,-0.346 0.985,-0.835 0.091,-0.545 -0.277,-1.06 -0.821,-1.151 -1.971,-0.33 -4.028,-1.028 -4.319,-1.466 -0.278,-0.476 -0.89,-0.636 -1.367,-0.358 -0.477,0.278 -0.638,0.891 -0.36,1.368 0.861,1.474 4.284,2.189 5.716,2.428 z"
   id="path38"
   style="fill:#de8787" />
  <path
   d="m 51.109892,56.700084 c 0.987,-0.184 2.853,0.979 3.863,1.866 0.19,0.167 0.425,0.248 0.66,0.248 0.277,0 0.554,-0.115 0.751,-0.34 0.364,-0.415 0.324,-1.045 -0.09,-1.41 -0.323,-0.284 -3.214,-2.764 -5.552,-2.33 -0.543,0.102 -0.9,0.624 -0.799,1.167 0.101,0.542 0.623,0.9 1.167,0.799 z"
   id="path40"
   style="fill:#de8787" />
  <path
   d="m 33.933892,64.827084 c -0.11,-0.402 -1.139,-3.952 -3.417,-4.566 -0.534,-0.144 -1.083,0.172 -1.226,0.705 -0.144,0.533 0.171,1.082 0.705,1.226 0.838,0.227 1.694,2.021 2.009,3.163 0.122,0.444 0.525,0.735 0.964,0.735 0.087,0 0.176,-0.012 0.265,-0.036 0.531,-0.146 0.845,-0.695 0.7,-1.227 z"
   id="path42"
   style="fill:#de8787" />
  <path
   d="m 57.207892,78.141084 -2.868,-1.537 c -0.258,-0.138 -0.563,-0.156 -0.836,-0.05 -0.272,0.106 -0.485,0.327 -0.581,0.604 l -0.922,2.663 c -0.174,0.503 0.077,1.055 0.57,1.254 0.386,0.156 0.951,0.287 1.586,0.287 1.108,0 2.431,-0.399 3.395,-1.764 0.165,-0.234 0.222,-0.528 0.156,-0.807 -0.066,-0.279 -0.248,-0.515 -0.5,-0.65 z"
   id="path44"
   style="fill:#008a00;fill-opacity:1" />
  <path
   d="m 64.107892,61.209084 c -0.766,0.347 -1.98,1.615 -1.098,3.93 0.151,0.397 0.53,0.644 0.935,0.644 0.103,0 0.208,-0.016 0.311,-0.049 l 3.137,-1.024 c 0.367,-0.12 0.632,-0.441 0.682,-0.824 0.049,-0.383 -0.127,-0.76 -0.453,-0.969 l -2.561,-1.639 c -0.286,-0.183 -0.643,-0.21 -0.953,-0.069 z"
   id="path46"
   style="fill:#008a00;fill-opacity:1" />
  <path
   d="m 40.448892,73.045084 c 0.22,0.034 0.439,0.049 0.658,0.049 2.155,0 4.117,-1.51 4.208,-1.581 0.253,-0.197 0.396,-0.504 0.384,-0.825 -0.012,-0.321 -0.178,-0.617 -0.445,-0.795 l -2.92,-1.947 c -0.256,-0.171 -0.577,-0.214 -0.868,-0.118 -0.292,0.097 -0.523,0.322 -0.627,0.612 l -1.178,3.278 c -0.101,0.281 -0.071,0.592 0.082,0.849 0.151,0.257 0.411,0.432 0.706,0.478 z"
   id="path48"
   style="fill:#008a00;fill-opacity:1" />
  <path
   d="m 68.354892,72.061084 -3.79,-0.973 c -0.326,-0.083 -0.675,0.003 -0.924,0.232 -0.25,0.229 -0.366,0.567 -0.311,0.901 l 0.41,2.458 c 0.072,0.433 0.418,0.769 0.854,0.827 0.131,0.018 0.262,0.025 0.393,0.025 1.815,0 3.587,-1.573 3.796,-1.765 0.271,-0.248 0.383,-0.625 0.294,-0.98 -0.09,-0.355 -0.367,-0.634 -0.722,-0.725 z"
   id="path50"
   style="fill:#008a00;fill-opacity:1" />
  
  
<path
   d="m 18.766892,72.188084 -4.62,-1.606 3.749,-2.703 c -0.051,2.001 0.555,3.566 0.871,4.309 z"
   id="path115"
   style="fill:#ffe680;fill-opacity:1" /><path
   d="m 82.021892,64.075084 -4.13,3.242 c -0.012,-0.341 -0.036,-0.687 -0.089,-1.042 -0.191,-1.279 -0.746,-2.578 -1.632,-3.888 z"
   id="path107"
   style="fill:#ffe680;fill-opacity:1" /><path
   d="m 29.701892,71.069084 c 0.092,-0.25 0.09,-0.533 -0.038,-0.79 -0.417,-0.836 -3.151,-2.496 -4.317,-2.957 -0.515,-0.203 -1.094,0.049 -1.298,0.563 -0.203,0.514 0.049,1.095 0.563,1.298 1.181,0.467 2.989,1.726 3.31,2.073 0.016,0.025 0.037,0.043 0.054,0.066 1.48126,0.741943 1.616702,0.339514 1.726,-0.253 z"
   id="path32-2"
   style="fill:#de8787;fill-opacity:1"
   sodipodi:nodetypes="cccccccc" /><path
   d="m 29.701892,71.069084 c -0.741834,-0.0029 -0.964129,0.0081 -1.726,0.253 -0.876,0.331 -1.435,0.946 -1.435,1.709 0,1.144 1.243,1.973 2.957,1.973 1.714,0 2.957,-0.83 2.957,-1.973 -0.002,-1.098 -1.15,-1.897 -2.753,-1.962 z"
   id="path32"
   style="fill:#c83737"
   sodipodi:nodetypes="ccsscc" /><rect
   style="display:none;fill:#de8787;stroke-width:15.5873"
   id="rect869"
   width="100.20017"
   height="100.20017"
   x="0"
   y="0" /></svg>
